<svg xmlns="http://www.w3.org/2000/svg" xmlns:xlink="http://www.w3.org/1999/xlink" xmlns:lucid="lucid" width="1200" height="360"><g transform="translate(-120 -40)" lucid:page-tab-id="0_0"><path d="M0 0h1760v1360H0z" fill="#fff"/><path d="M176 120c-8.84 0-16 7.16-16 16v48c0 8.84 7.16 16 16 16h128c8.84 0 16-7.16 16-16v-48c0-8.84-7.16-16-16-16z" stroke="#000" stroke-width="2" fill="#fff"/><use xlink:href="#a" transform="matrix(1,0,0,1,168,128) translate(43.724999999999994 35.6)"/><use xlink:href="#b" transform="matrix(1,0,0,1,168,128) translate(73.32499999999999 35.6)"/><path d="M416 120c-8.84 0-16 7.16-16 16v48c0 8.84 7.16 16 16 16h128c8.84 0 16-7.16 16-16v-48c0-8.84-7.16-16-16-16z" stroke="#000" stroke-width="2" fill="#fcc438"/><use xlink:href="#c" transform="matrix(1,0,0,1,408,128) translate(9.574999999999996 35.6)"/><use xlink:href="#d" transform="matrix(1,0,0,1,408,128) translate(32.525 35.6)"/><path d="M656 120c-8.84 0-16 7.16-16 16v48c0 8.84 7.16 16 16 16h128c8.84 0 16-7.16 16-16v-48c0-8.84-7.16-16-16-16z" stroke="#000" stroke-width="2" fill="#c7e8ac"/><use xlink:href="#a" transform="matrix(1,0,0,1,648,128) translate(21.75 35.6)"/><use xlink:href="#e" transform="matrix(1,0,0,1,648,128) translate(51.35 35.6)"/><path d="M322 160h58.5" stroke="#000" stroke-width="2" fill="none"/><path d="M322.03 161H321v-2h1.03z"/><path d="M395.76 160l-14.26 4.64v-9.28z" stroke="#000" stroke-width="2"/><path d="M562 160h58.5" stroke="#000" stroke-width="2" fill="none"/><path d="M562.03 161H561v-2h1.03z"/><path d="M635.76 160l-14.26 4.64v-9.28z" stroke="#000" stroke-width="2"/><path d="M416 280c-8.84 0-16 7.16-16 16v48c0 8.84 7.16 16 16 16h128c8.84 0 16-7.16 16-16v-48c0-8.84-7.16-16-16-16z" stroke="#000" stroke-width="2" fill="#ff8f80"/><use xlink:href="#a" transform="matrix(1,0,0,1,408,288) translate(43.224999999999994 35.6)"/><use xlink:href="#f" transform="matrix(1,0,0,1,408,288) translate(72.82499999999999 35.6)"/><path d="M896 120c-8.84 0-16 7.16-16 16v48c0 8.84 7.16 16 16 16h128c8.84 0 16-7.16 16-16v-48c0-8.84-7.16-16-16-16z" stroke="#000" stroke-width="2" fill="#a3d977"/><use xlink:href="#g" transform="matrix(1,0,0,1,888,128) translate(22.049999999999997 35.6)"/><path d="M720 202v118H579.5" stroke="#000" stroke-width="2" fill="none"/><path d="M721 202.03h-2V201h2z"/><path d="M564.24 320l14.26-4.64v9.28z" stroke="#000" stroke-width="2"/><path d="M802 160h58.5" stroke="#000" stroke-width="2" fill="none"/><path d="M802.03 161H801v-2h1.03z"/><path d="M875.76 160l-14.26 4.64v-9.28z" stroke="#000" stroke-width="2"/><path d="M480 278v-58.5" stroke="#000" stroke-width="2" fill="none"/><path d="M481 279h-2v-1.03h2z"/><path d="M480 204.24l4.64 14.26h-9.28z" stroke="#000" stroke-width="2"/><path d="M1136 120c-8.84 0-16 7.16-16 16v48c0 8.84 7.16 16 16 16h128c8.84 0 16-7.16 16-16v-48c0-8.84-7.16-16-16-16z" stroke="#000" stroke-width="2" fill="#7ab648"/><use xlink:href="#h" transform="matrix(1,0,0,1,1128,128) translate(46.05 35.6)"/><path d="M1042 160h58.5" stroke="#000" stroke-width="2" fill="none"/><path d="M1042.03 161H1041v-2h1.03z"/><path d="M1115.76 160l-14.26 4.64v-9.28z" stroke="#000" stroke-width="2"/><path d="M140 60h440v320H140z" fill-opacity="0"/><path d="M160.95 60h2.1m10.47 0h20.96m10.47 0h2.1m10.47 0h20.96m10.47 0h2.1m10.47 0h20.96m10.47 0h2.1m10.47 0h20.96m10.47 0h2.1m10.47 0h20.96m10.47 0h2.1m10.47 0h20.96m10.47 0h2.1m10.47 0h20.96m10.47 0h2.1m10.47 0h20.96m10.47 0h2.1m10.47 0h20.96m10.47 0h2.1m10.47 0H580v9.52m0 9.53v1.9m0 9.53v19.04m0 9.53v1.9m0 9.53v19.04m0 9.53v1.9m0 9.53v19.04m0 9.53v1.9m0 9.53v19.04m0 9.53v1.9m0 9.53v19.04m0 9.53v1.9m0 9.53v19.04m0 9.53v1.9m0 9.53v19.04m0 9.53v1.9m0 9.53V380h-10.48m-10.47 0h-2.1m-10.47 0h-20.96m-10.47 0h-2.1m-10.47 0h-20.96m-10.47 0h-2.1m-10.47 0h-20.96m-10.47 0h-2.1m-10.47 0h-20.96m-10.47 0h-2.1m-10.47 0h-20.96m-10.47 0h-2.1m-10.47 0h-20.96m-10.47 0h-2.1m-10.47 0h-20.96m-10.47 0h-2.1m-10.47 0h-20.96m-10.47 0h-2.1m-10.47 0h-20.96m-10.47 0h-2.1m-10.47 0H140v-9.52m0-9.53v-1.9m0-9.53v-19.04m0-9.53v-1.9m0-9.53v-19.04m0-9.53v-1.9m0-9.53v-19.04m0-9.53v-1.9m0-9.53v-19.04m0-9.53v-1.9m0-9.53v-19.04m0-9.53v-1.9m0-9.53v-19.04m0-9.53v-1.9m0-9.53V90.48m0-9.53v-1.9m0-9.53V60h10.48" stroke="#000" stroke-width="2" fill="none"/><use xlink:href="#i" transform="matrix(1,0,0,1,160,80) translate(155.03580246913583 21.511111111111106)"/><path d="M620 60h680v320H620z" fill-opacity="0"/><path d="M640.24 60h2.02m10.12 0h20.24m10.12 0h2.02m10.12 0h20.24m10.12 0h2.02m10.12 0h20.24m10.12 0h2.02m10.12 0h20.24m10.12 0h2.02m10.12 0h20.24m10.12 0h2.02m10.12 0h20.24m10.12 0h2.02m10.12 0h20.24m10.12 0h2.02m10.12 0h20.24m10.12 0h2.02m10.12 0h20.24m10.12 0h2.02m10.12 0h20.24m10.12 0h2.02m10.12 0h20.24m10.12 0h2.02m10.12 0h20.24m10.12 0h2.02m10.12 0h20.24m10.12 0h2.02m10.12 0h20.24m10.12 0h2.02m10.12 0h20.24m10.12 0h2.02m10.12 0H1300v9.52m0 9.53v1.9m0 9.53v19.04m0 9.53v1.9m0 9.53v19.04m0 9.53v1.9m0 9.53v19.04m0 9.53v1.9m0 9.53v19.04m0 9.53v1.9m0 9.53v19.04m0 9.53v1.9m0 9.53v19.04m0 9.53v1.9m0 9.53v19.04m0 9.53v1.9m0 9.53V380h-10.12m-10.12 0h-2.02m-10.12 0h-20.24m-10.12 0h-2.02m-10.12 0h-20.24m-10.12 0h-2.02m-10.12 0h-20.24m-10.12 0h-2.02m-10.12 0h-20.24m-10.12 0h-2.02m-10.12 0h-20.24m-10.12 0h-2.02m-10.12 0h-20.24m-10.12 0h-2.02m-10.12 0h-20.24m-10.12 0h-2.02m-10.12 0h-20.24m-10.12 0h-2.02m-10.12 0h-20.24m-10.12 0h-2.02m-10.12 0h-20.24m-10.12 0h-2.02m-10.12 0h-20.24m-10.12 0h-2.02m-10.12 0h-20.24m-10.12 0h-2.02m-10.12 0h-20.24m-10.12 0h-2.02m-10.12 0h-20.24m-10.12 0h-2.02m-10.12 0h-20.24m-10.12 0h-2.02m-10.12 0H620v-9.52m0-9.53v-1.9m0-9.53v-19.04m0-9.53v-1.9m0-9.53v-19.04m0-9.53v-1.9m0-9.53v-19.04m0-9.53v-1.9m0-9.53v-19.04m0-9.53v-1.9m0-9.53v-19.04m0-9.53v-1.9m0-9.53v-19.04m0-9.53v-1.9m0-9.53V90.48m0-9.53v-1.9m0-9.53V60h10.12" stroke="#000" stroke-width="2" fill="none"/><g><use xlink:href="#j" transform="matrix(1,0,0,1,640,80) translate(278.0608024691358 21.511111111111106)"/></g><defs><path d="M127-220V0H93v-220H8v-28h204v28h-85" id="k"/><path d="M140-251c81 0 123 46 123 126C263-46 219 4 140 4 59 4 17-45 17-125s42-126 123-126zm0 227c63 0 89-41 89-101s-29-99-89-99c-61 0-89 39-89 99S79-25 140-24" id="l"/><g id="a"><use transform="matrix(0.05,0,0,0.05,0,0)" xlink:href="#k"/><use transform="matrix(0.05,0,0,0.05,10.600000000000001,0)" xlink:href="#l"/></g><path d="M30-248c118-7 216 8 213 122C240-48 200 0 122 0H30v-248zM63-27c89 8 146-16 146-99s-60-101-146-95v194" id="m"/><g id="b"><use transform="matrix(0.05,0,0,0.05,0,0)" xlink:href="#m"/><use transform="matrix(0.05,0,0,0.05,12.950000000000001,0)" xlink:href="#l"/></g><path d="M33 0v-248h34V0H33" id="n"/><path d="M190 0L58-211 59 0H30v-248h39L202-35l-2-213h31V0h-41" id="o"/><g id="c"><use transform="matrix(0.05,0,0,0.05,0,0)" xlink:href="#n"/><use transform="matrix(0.05,0,0,0.05,5,0)" xlink:href="#o"/></g><path d="M30-248c87 1 191-15 191 75 0 78-77 80-158 76V0H30v-248zm33 125c57 0 124 11 124-50 0-59-68-47-124-48v98" id="p"/><path d="M233-177c-1 41-23 64-60 70L243 0h-38l-65-103H63V0H30v-248c88 3 205-21 203 71zM63-129c60-2 137 13 137-47 0-61-80-42-137-45v92" id="q"/><path d="M143 4C61 4 22-44 18-125c-5-107 100-154 193-111 17 8 29 25 37 43l-32 9c-13-25-37-40-76-40-61 0-88 39-88 99 0 61 29 100 91 101 35 0 62-11 79-27v-45h-74v-28h105v86C228-13 192 4 143 4" id="r"/><path d="M30 0v-248h187v28H63v79h144v27H63v87h162V0H30" id="s"/><path d="M185-189c-5-48-123-54-124 2 14 75 158 14 163 119 3 78-121 87-175 55-17-10-28-26-33-46l33-7c5 56 141 63 141-1 0-78-155-14-162-118-5-82 145-84 179-34 5 7 8 16 11 25" id="t"/><g id="d"><use transform="matrix(0.05,0,0,0.05,0,0)" xlink:href="#p"/><use transform="matrix(0.05,0,0,0.05,12,0)" xlink:href="#q"/><use transform="matrix(0.05,0,0,0.05,24.950000000000003,0)" xlink:href="#l"/><use transform="matrix(0.05,0,0,0.05,38.95,0)" xlink:href="#r"/><use transform="matrix(0.05,0,0,0.05,52.95,0)" xlink:href="#q"/><use transform="matrix(0.05,0,0,0.05,65.9,0)" xlink:href="#s"/><use transform="matrix(0.05,0,0,0.05,77.9,0)" xlink:href="#t"/><use transform="matrix(0.05,0,0,0.05,89.9,0)" xlink:href="#t"/></g><path d="M137 0h-34L2-248h35l83 218 83-218h36" id="u"/><path d="M266 0h-40l-56-210L115 0H75L2-248h35L96-30l15-64 43-154h32l59 218 59-218h35" id="v"/><g id="e"><use transform="matrix(0.05,0,0,0.05,0,0)" xlink:href="#q"/><use transform="matrix(0.05,0,0,0.05,12.950000000000001,0)" xlink:href="#s"/><use transform="matrix(0.05,0,0,0.05,24.950000000000003,0)" xlink:href="#u"/><use transform="matrix(0.05,0,0,0.05,36.95,0)" xlink:href="#n"/><use transform="matrix(0.05,0,0,0.05,41.95,0)" xlink:href="#s"/><use transform="matrix(0.05,0,0,0.05,53.95,0)" xlink:href="#v"/></g><path d="M63-220v92h138v28H63V0H30v-248h175v28H63" id="w"/><path d="M195 0l-74-108L45 0H8l94-129-87-119h37l69 98 67-98h37l-84 118L233 0h-38" id="x"/><g id="f"><use transform="matrix(0.05,0,0,0.05,0,0)" xlink:href="#w"/><use transform="matrix(0.05,0,0,0.05,10.950000000000001,0)" xlink:href="#n"/><use transform="matrix(0.05,0,0,0.05,15.950000000000001,0)" xlink:href="#x"/></g><path d="M205 0l-28-72H64L36 0H1l101-248h38L239 0h-34zm-38-99l-47-123c-12 45-31 82-46 123h93" id="y"/><g id="g"><use transform="matrix(0.05,0,0,0.05,0,0)" xlink:href="#y"/><use transform="matrix(0.05,0,0,0.05,12,0)" xlink:href="#p"/><use transform="matrix(0.05,0,0,0.05,24,0)" xlink:href="#p"/><use transform="matrix(0.05,0,0,0.05,36,0)" xlink:href="#q"/><use transform="matrix(0.05,0,0,0.05,48.95,0)" xlink:href="#l"/><use transform="matrix(0.05,0,0,0.05,62.95,0)" xlink:href="#u"/><use transform="matrix(0.05,0,0,0.05,74.95,0)" xlink:href="#s"/><use transform="matrix(0.05,0,0,0.05,86.95,0)" xlink:href="#m"/></g><g id="h"><use transform="matrix(0.05,0,0,0.05,0,0)" xlink:href="#m"/><use transform="matrix(0.05,0,0,0.05,12.950000000000001,0)" xlink:href="#l"/><use transform="matrix(0.05,0,0,0.05,26.950000000000003,0)" xlink:href="#o"/><use transform="matrix(0.05,0,0,0.05,39.900000000000006,0)" xlink:href="#s"/></g><path d="M114-163C36-179 61-72 57 0H25l-1-190h30c1 12-1 29 2 39 6-27 23-49 58-41v29" id="z"/><path d="M141-36C126-15 110 5 73 4 37 3 15-17 15-53c-1-64 63-63 125-63 3-35-9-54-41-54-24 1-41 7-42 31l-33-3c5-37 33-52 76-52 45 0 72 20 72 64v82c-1 20 7 32 28 27v20c-31 9-61-2-59-35zM48-53c0 20 12 33 32 33 41-3 63-29 60-74-43 2-92-5-92 41" id="A"/><path d="M24-231v-30h32v30H24zM24 0v-190h32V0H24" id="B"/><path d="M117-194c89-4 53 116 60 194h-32v-121c0-31-8-49-39-48C34-167 62-67 57 0H25l-1-190h30c1 10-1 24 2 32 11-22 29-35 61-36" id="C"/><path d="M100-194c63 0 86 42 84 106H49c0 40 14 67 53 68 26 1 43-12 49-29l28 8c-11 28-37 45-77 45C44 4 14-33 15-96c1-61 26-98 85-98zm52 81c6-60-76-77-97-28-3 7-6 17-6 28h103" id="D"/><g id="i"><use transform="matrix(0.07469135802469135,0,0,0.07469135802469135,0,0)" xlink:href="#k"/><use transform="matrix(0.07469135802469135,0,0,0.07469135802469135,15.386419753086416,0)" xlink:href="#z"/><use transform="matrix(0.07469135802469135,0,0,0.07469135802469135,24.274691358024686,0)" xlink:href="#A"/><use transform="matrix(0.07469135802469135,0,0,0.07469135802469135,39.212962962962955,0)" xlink:href="#B"/><use transform="matrix(0.07469135802469135,0,0,0.07469135802469135,45.11358024691357,0)" xlink:href="#C"/><use transform="matrix(0.07469135802469135,0,0,0.07469135802469135,60.051851851851836,0)" xlink:href="#D"/><use transform="matrix(0.07469135802469135,0,0,0.07469135802469135,74.9901234567901,0)" xlink:href="#D"/></g><g id="j"><use transform="matrix(0.07469135802469135,0,0,0.07469135802469135,0,0)" xlink:href="#k"/><use transform="matrix(0.07469135802469135,0,0,0.07469135802469135,15.386419753086416,0)" xlink:href="#z"/><use transform="matrix(0.07469135802469135,0,0,0.07469135802469135,24.274691358024686,0)" xlink:href="#A"/><use transform="matrix(0.07469135802469135,0,0,0.07469135802469135,39.212962962962955,0)" xlink:href="#B"/><use transform="matrix(0.07469135802469135,0,0,0.07469135802469135,45.11358024691357,0)" xlink:href="#C"/><use transform="matrix(0.07469135802469135,0,0,0.07469135802469135,60.051851851851836,0)" xlink:href="#D"/><use transform="matrix(0.07469135802469135,0,0,0.07469135802469135,74.9901234567901,0)" xlink:href="#z"/></g></defs></g></svg>